<svg width="59" height="58" viewBox="0 0 59 58" fill="none" xmlns="http://www.w3.org/2000/svg">
<g filter="url(#filter0_d_3_86)">
<rect x="6.27972" y="4.23489" width="46.4584" height="45.2954" rx="8" fill="white"/>
</g>
<path d="M40.0937 43.7202H18.9241L16.6957 18.7353H42.3221L40.0937 43.7202Z" fill="#A8D7E4"/>
<path d="M45.1076 18.7353H13.9103L14.6025 16.0358C14.723 15.5658 15.0013 15.1485 15.393 14.8503C15.7847 14.5521 16.2674 14.3901 16.7643 14.3901H42.2535C42.7505 14.3901 43.2332 14.5521 43.6249 14.8503C44.0166 15.1485 44.2949 15.5658 44.4154 16.0358L45.1076 18.7353Z" fill="#87BBC9"/>
<path d="M35.637 14.3901H23.3809L24.2841 10.8678C24.3444 10.6328 24.4835 10.4241 24.6794 10.275C24.8752 10.1259 25.1166 10.045 25.365 10.045H33.6529C33.9014 10.045 34.1427 10.1259 34.3386 10.275C34.5344 10.4241 34.6735 10.6328 34.7338 10.8678L35.637 14.3901Z" fill="#A8D7E4"/>
<path d="M29.509 39.375C29.2135 39.375 28.9301 39.2605 28.7211 39.0568C28.5122 38.8531 28.3948 38.5768 28.3948 38.2887V24.1668C28.3948 23.8787 28.5122 23.6024 28.7211 23.3987C28.9301 23.195 29.2135 23.0805 29.509 23.0805C29.8045 23.0805 30.0879 23.195 30.2968 23.3987C30.5058 23.6024 30.6232 23.8787 30.6232 24.1668V38.2887C30.6231 38.5768 30.5057 38.8531 30.2968 39.0568C30.0879 39.2605 29.8045 39.375 29.509 39.375Z" fill="#87BBC9"/>
<path d="M23.3798 39.375C23.0993 39.3747 22.8292 39.2713 22.6235 39.0853C22.4178 38.8994 22.2915 38.6447 22.27 38.372L21.1559 24.2502C21.1437 24.1075 21.1606 23.9638 21.2056 23.8274C21.2506 23.6911 21.3228 23.5648 21.418 23.4557C21.5133 23.3467 21.6297 23.2571 21.7606 23.1921C21.8915 23.1271 22.0343 23.088 22.1808 23.077C22.3273 23.066 22.4745 23.0834 22.6141 23.1281C22.7537 23.1728 22.8828 23.244 22.994 23.3376C23.1053 23.4311 23.1964 23.5452 23.2623 23.6733C23.3281 23.8013 23.3673 23.9408 23.3777 24.0836L24.4918 38.2055C24.5144 38.4927 24.4191 38.777 24.2268 38.9957C24.0345 39.2145 23.7609 39.3497 23.4663 39.3718C23.4372 39.374 23.4084 39.375 23.3798 39.375Z" fill="#87BBC9"/>
<path d="M35.6381 39.375C35.9186 39.3747 36.1887 39.2713 36.3944 39.0853C36.6002 38.8994 36.7264 38.6447 36.7479 38.372L37.8621 24.2502C37.8742 24.1075 37.8573 23.9638 37.8124 23.8274C37.7674 23.6911 37.6952 23.5648 37.5999 23.4557C37.5046 23.3467 37.3882 23.2571 37.2573 23.1921C37.1264 23.1271 36.9836 23.088 36.8371 23.077C36.6906 23.066 36.5434 23.0834 36.4038 23.1281C36.2643 23.1728 36.1351 23.244 36.0239 23.3376C35.9127 23.4311 35.8215 23.5452 35.7557 23.6733C35.6898 23.8013 35.6506 23.9408 35.6403 24.0836L34.5262 38.2055C34.5035 38.4927 34.5988 38.777 34.7911 38.9957C34.9835 39.2145 35.257 39.3497 35.5516 39.3718C35.5807 39.374 35.6096 39.375 35.6381 39.375Z" fill="#87BBC9"/>
<defs>
<filter id="filter0_d_3_86" x="0.279724" y="0.234894" width="58.4584" height="57.2954" filterUnits="userSpaceOnUse" color-interpolation-filters="sRGB">
<feFlood flood-opacity="0" result="BackgroundImageFix"/>
<feColorMatrix in="SourceAlpha" type="matrix" values="0 0 0 0 0 0 0 0 0 0 0 0 0 0 0 0 0 0 127 0" result="hardAlpha"/>
<feOffset dy="2"/>
<feGaussianBlur stdDeviation="3"/>
<feComposite in2="hardAlpha" operator="out"/>
<feColorMatrix type="matrix" values="0 0 0 0 0 0 0 0 0 0 0 0 0 0 0 0 0 0 0.25 0"/>
<feBlend mode="normal" in2="BackgroundImageFix" result="effect1_dropShadow_3_86"/>
<feBlend mode="normal" in="SourceGraphic" in2="effect1_dropShadow_3_86" result="shape"/>
</filter>
</defs>
</svg>
