<svg width="59" height="58" viewBox="0 0 59 58" fill="none" xmlns="http://www.w3.org/2000/svg">
<g filter="url(#filter0_d_3_70)">
<rect x="6.33881" y="4.23489" width="46.4584" height="45.2954" rx="8" fill="white"/>
</g>
<path fill-rule="evenodd" clip-rule="evenodd" d="M30.648 10.1876L35.2238 19.6594C35.392 20.0172 35.7321 20.2697 36.1306 20.3325L46.3625 21.8513C46.8251 21.9388 47.2008 22.2672 47.3404 22.706C47.4799 23.1447 47.3607 23.6228 47.03 23.95L39.6262 31.3227C39.3403 31.6118 39.2118 32.0158 39.2798 32.4118L41.0276 42.8223C41.1229 43.2698 40.9462 43.7309 40.5732 44.0078C40.2001 44.2847 39.6972 44.328 39.2801 44.1193L30.1284 39.2041C29.7798 39.0157 29.3562 39.0157 29.0075 39.2041L19.8559 44.1193C19.4388 44.328 18.9358 44.2847 18.5628 44.0078C18.1898 43.7309 18.013 43.2698 18.1084 42.8223L19.8562 32.4118C19.9242 32.0158 19.7957 31.6118 19.5098 31.3227L12.106 23.95C11.7753 23.6228 11.6561 23.1447 11.7956 22.706C11.9352 22.2672 12.3109 21.9388 12.7735 21.8514L23.0053 20.3325C23.4038 20.2697 23.7439 20.0172 23.9121 19.6594L28.488 10.1876C28.677 9.77073 29.1005 9.50179 29.568 9.50179C30.0355 9.50179 30.459 9.77073 30.648 10.1876Z" fill="#F6AB27"/>
<path fill-rule="evenodd" clip-rule="evenodd" d="M22.2825 32.799C22.4761 31.6498 22.0987 30.4792 21.2656 29.6446L15.4725 23.8757L23.3757 22.7028C24.5835 22.5201 25.6185 21.7628 26.136 20.6832L29.568 13.5786L32.9988 20.6811C33.5162 21.7616 34.5517 22.5197 35.7603 22.7027L43.6634 23.8756L37.8692 29.6457C37.0365 30.4807 36.6596 31.6513 36.8535 32.8004L38.1964 40.8002L31.3149 37.1044C30.2279 36.5193 28.9089 36.5191 27.8217 37.1038L20.9396 40.8002L22.2825 32.799Z" fill="url(#paint0_linear_3_70)"/>
<defs>
<filter id="filter0_d_3_70" x="0.338806" y="0.234894" width="58.4584" height="57.2954" filterUnits="userSpaceOnUse" color-interpolation-filters="sRGB">
<feFlood flood-opacity="0" result="BackgroundImageFix"/>
<feColorMatrix in="SourceAlpha" type="matrix" values="0 0 0 0 0 0 0 0 0 0 0 0 0 0 0 0 0 0 127 0" result="hardAlpha"/>
<feOffset dy="2"/>
<feGaussianBlur stdDeviation="3"/>
<feComposite in2="hardAlpha" operator="out"/>
<feColorMatrix type="matrix" values="0 0 0 0 0 0 0 0 0 0 0 0 0 0 0 0 0 0 0.25 0"/>
<feBlend mode="normal" in2="BackgroundImageFix" result="effect1_dropShadow_3_70"/>
<feBlend mode="normal" in="SourceGraphic" in2="effect1_dropShadow_3_70" result="shape"/>
</filter>
<linearGradient id="paint0_linear_3_70" x1="34.4299" y1="15.2954" x2="29.8007" y2="40.8424" gradientUnits="userSpaceOnUse">
<stop offset="0.364583" stop-color="#F4CD1E"/>
<stop offset="1" stop-color="#FAFF1B"/>
</linearGradient>
</defs>
</svg>
