<svg width="59" height="58" viewBox="0 0 59 58" fill="none" xmlns="http://www.w3.org/2000/svg">
<g filter="url(#filter0_d_3_53)">
<rect x="6" y="4.23489" width="46.4584" height="45.2954" rx="8" fill="white"/>
</g>
<path d="M25.1693 40.0665L15.8167 30.917L35.5027 11.6564C37.1053 10.0865 39.7082 10.0865 41.3117 11.6564L44.8533 15.1235C46.4583 16.6927 46.4583 19.2379 44.8533 20.8063L25.1693 40.0665Z" fill="#E0F1F8"/>
<path d="M25.1693 41.0445C24.9136 41.0445 24.658 40.9488 24.4632 40.7582L15.1102 31.6083C14.9225 31.4247 14.8176 31.1761 14.8176 30.917C14.8176 30.658 14.9229 30.409 15.1102 30.2258L34.7966 10.9652C35.7599 10.0215 37.0421 9.5018 38.407 9.5018C39.7718 9.5018 41.054 10.0215 42.0185 10.9656L45.5602 14.4327C46.5251 15.3756 47.0566 16.6305 47.0562 17.9659C47.0562 19.3005 46.5247 20.555 45.5594 21.4979L25.8753 40.7582C25.6805 40.9488 25.4249 41.0445 25.1693 41.0445ZM17.2296 30.917L25.1697 38.6848L44.1476 20.1155C44.7352 19.5409 45.0584 18.7781 45.0588 17.9659C45.0588 17.1533 44.7356 16.3897 44.148 15.8152L40.6056 12.3477C40.0187 11.7731 39.2383 11.4565 38.4074 11.4565C37.5768 11.4565 36.7964 11.7727 36.21 12.3473L17.2296 30.917Z" fill="#454B53"/>
<path d="M42.7636 23.8307C42.508 23.8307 42.2523 23.735 42.0575 23.5444L32.7029 14.3945C32.3129 14.0129 32.3129 13.3941 32.7029 13.0125C33.0925 12.6312 33.7255 12.6309 34.1155 13.0125L43.4697 22.1623C43.8597 22.5439 43.8597 23.1628 43.4697 23.5444C43.2749 23.7354 43.0196 23.8307 42.7636 23.8307Z" fill="#454B53"/>
<path d="M25.0412 39.9424L12.4011 43.2858L15.9268 31.0248L25.0412 39.9424Z" fill="#9ABFDA"/>
<path d="M12.4011 44.2634C12.1379 44.2634 11.881 44.1611 11.691 43.9732C11.4381 43.7231 11.3423 43.3597 11.4393 43.0213L14.965 30.7599C15.0613 30.4261 15.3312 30.167 15.6743 30.0791C16.0174 29.9916 16.3824 30.0881 16.6329 30.3331L25.7473 39.2512C25.9994 39.4978 26.0984 39.8572 26.0061 40.1941C25.9139 40.531 25.6459 40.7947 25.3016 40.8853L12.6615 44.2291C12.5756 44.2521 12.4881 44.2634 12.4011 44.2634ZM16.4265 32.8962L13.8391 41.8928L23.1146 39.4395L16.4265 32.8962Z" fill="#454B53"/>
<path d="M25.1462 31.9175C24.8906 31.9175 24.6349 31.8218 24.4401 31.6312C24.0501 31.2496 24.0501 30.6307 24.4401 30.2491L33.5371 21.3478C33.9267 20.9662 34.5596 20.9662 34.9496 21.3478C35.3397 21.7294 35.3397 22.3483 34.9496 22.7299L25.8523 31.6312C25.6575 31.8218 25.4014 31.9175 25.1462 31.9175Z" fill="#454B53"/>
<defs>
<filter id="filter0_d_3_53" x="0" y="0.234894" width="58.4584" height="57.2954" filterUnits="userSpaceOnUse" color-interpolation-filters="sRGB">
<feFlood flood-opacity="0" result="BackgroundImageFix"/>
<feColorMatrix in="SourceAlpha" type="matrix" values="0 0 0 0 0 0 0 0 0 0 0 0 0 0 0 0 0 0 127 0" result="hardAlpha"/>
<feOffset dy="2"/>
<feGaussianBlur stdDeviation="3"/>
<feComposite in2="hardAlpha" operator="out"/>
<feColorMatrix type="matrix" values="0 0 0 0 0 0 0 0 0 0 0 0 0 0 0 0 0 0 0.25 0"/>
<feBlend mode="normal" in2="BackgroundImageFix" result="effect1_dropShadow_3_53"/>
<feBlend mode="normal" in="SourceGraphic" in2="effect1_dropShadow_3_53" result="shape"/>
</filter>
</defs>
</svg>
