<svg width="36" height="36" viewBox="0 0 36 36" fill="none" xmlns="http://www.w3.org/2000/svg">
<path d="M35.1214 30.8793L27.5058 23.2637C29.0793 20.8922 30.0003 18.0527 30.0003 15.0002C30.0003 6.72907 23.2712 0 15.0002 0C6.72907 0 0 6.72907 0 15.0002C0 23.2712 6.72907 30.0003 15.0002 30.0003C18.0527 30.0003 20.8922 29.0793 23.2637 27.5058L30.8793 35.1214C32.0493 36.2929 33.9514 36.2929 35.1214 35.1214C36.2929 33.9499 36.2929 32.0508 35.1214 30.8793ZM4.50005 15.0002C4.50005 9.2101 9.2101 4.50005 15.0002 4.50005C20.7902 4.50005 25.5003 9.2101 25.5003 15.0002C25.5003 20.7902 20.7902 25.5003 15.0002 25.5003C9.2101 25.5003 4.50005 20.7902 4.50005 15.0002Z" fill="#383838"/>
</svg>
